# xmcd CD database file
#
# Track frame offsets:
#	150
#	22070
#	44500
#	66421
#
# Disc length: 1178 seconds
#
# Revision: 2
# Processed by: cddbd v1.5.1PL0 Copyright (c) Steve Scherf et al.
# Submitted via: CDex 1.51
#
DISCID=37049804
DTITLE=WeLLOW Generation - 扉の向こうへ
DYEAR=2004
DGENRE=J ポップ
TTITLE0=扉の向こうへ
TTITLE1=君がいたから -eternal way-
TTITLE2=扉の向こうへ (less vocal)
TTITLE3=君がいたから -eternal way- (less vocal)
EXTD=YEAR: 2004
EXTT0=
EXTT1=
EXTT2=
EXTT3=
PLAYORDER=
